<svg xmlns="http://www.w3.org/2000/svg" xmlns:xlink="http://www.w3.org/1999/xlink" width="500" zoomAndPan="magnify" viewBox="0 0 375 374.999991" height="500" preserveAspectRatio="xMidYMid meet" version="1.2"><defs><clipPath id="3f653aab9a"><path d="M 120 178 L 195 178 L 195 254 L 120 254 Z M 120 178 "/></clipPath><clipPath id="6c7addfefa"><path d="M 105.128906 190 L 158.414062 140.753906 L 231.371094 219.691406 L 178.089844 268.9375 Z M 105.128906 190 "/></clipPath><clipPath id="bede3e3d28"><path d="M 105.128906 190 L 158.414062 140.753906 L 231.371094 219.691406 L 178.089844 268.9375 Z M 105.128906 190 "/></clipPath><clipPath id="0860b1b10d"><path d="M 158 143 L 234 143 L 234 219 L 158 219 Z M 158 143 "/></clipPath><clipPath id="a4e5f1cc1e"><path d="M 143.363281 154.664062 L 196.644531 105.417969 L 269.601562 184.351562 L 216.320312 233.601562 Z M 143.363281 154.664062 "/></clipPath><clipPath id="db6ec00999"><path d="M 143.363281 154.664062 L 196.644531 105.417969 L 269.601562 184.351562 L 216.320312 233.601562 Z M 143.363281 154.664062 "/></clipPath></defs><g id="c362b75932"><rect x="0" width="375" y="0" height="374.999991" style="fill:#ffffff;fill-opacity:1;stroke:none;"/><rect x="0" width="375" y="0" height="374.999991" style="fill:#eeeae4;fill-opacity:1;stroke:none;"/><g clip-rule="nonzero" clip-path="url(#3f653aab9a)"><g clip-rule="nonzero" clip-path="url(#6c7addfefa)"><g clip-rule="nonzero" clip-path="url(#bede3e3d28)"><path style=" stroke:none;fill-rule:nonzero;fill:#18cb96;fill-opacity:1;" d="M 194.917969 181.246094 L 130.714844 178.390625 C 118.3125 177.839844 116.21875 201.996094 130.914062 202.394531 L 170.863281 203.476562 L 167.8125 243.675781 C 166.882812 255.917969 190.757812 257.210938 191.4375 244.769531 Z M 194.917969 181.246094 "/></g></g></g><g clip-rule="nonzero" clip-path="url(#0860b1b10d)"><g clip-rule="nonzero" clip-path="url(#a4e5f1cc1e)"><g clip-rule="nonzero" clip-path="url(#db6ec00999)"><path style=" stroke:none;fill-rule:nonzero;fill:#18cb96;fill-opacity:1;" d="M 233.152344 145.90625 L 168.949219 143.054688 C 156.546875 142.503906 154.453125 166.660156 169.144531 167.058594 L 209.097656 168.140625 L 206.042969 208.339844 C 205.117188 220.582031 228.988281 221.875 229.671875 209.433594 Z M 233.152344 145.90625 "/></g></g></g></g></svg>